#define max_toggled_width 8
#define max_toggled_height 8
static unsigned char max_toggled_bits[] = {
   0x00, 0x70, 0x62, 0x46, 0x0e, 0x1e, 0x3e, 0x00 };
